# xmcd CD database file
# Copyright (C) 1993-1998 Ti Kan
#
# Track frame offsets:
#	183
#	14105
#	33130
#	49028
#	64393
#	80443
#	98843
#	119868
#	141910
#	160480
#	180058
#	194228
#	213070
#	230405
#	253218
#	271408
#	290515
#	312328
#
# Disc length: 4388 seconds
#
# Revision: 1
# Processed by: cddbd v1.4b41PL1 Copyright (c) Steve Scherf et al.
# Submitted via: CDValet v3.31 - Copyright (c) 1997 Greg Leichner
#
DISCID=11112212
DTITLE=Edwin Starr - Stop Her On Sight
DYEAR=1900
DGENRE=
TTITLE0=Stop Her On Sight
TTITLE1=25 Miles
TTITLE2=Darlin' Darlin' Baby
TTITLE3=Walking In Rhythm
TTITLE4=Let's Fall In Love
TTITLE5=You Won't Lead Me Into Temptation
TTITLE6=Girl, You're My Everything
TTITLE7=One And One Makes Two
TTITLE8=Teardrops
TTITLE9=Real True Loving
TTITLE10=Breaking Down The Walls Of Heartache
TTITLE11=You Make A Believer Out Of Me
TTITLE12=Release This Love
TTITLE13=Tit For Tat
TTITLE14=Key To Love
TTITLE15=Memory Lane
TTITLE16=In The Knick Of Time
TTITLE17=There You Go
EXTD=
EXTT0=
EXTT1=
EXTT2=
EXTT3=
EXTT4=
EXTT5=
EXTT6=
EXTT7=
EXTT8=
EXTT9=
EXTT10=
EXTT11=
EXTT12=
EXTT13=
EXTT14=
EXTT15=
EXTT16=
EXTT17=
PLAYORDER=
